<?xml version="1.0" encoding="UTF-8"?>
<svg version="1.1" xmlns="http://www.w3.org/2000/svg" width="1024" height="1024">
<path d="M0 0 C0.99 0.33 1.98 0.66 3 1 C3 1.33 3 1.66 3 2 C3.98097656 2.14695312 4.96195313 2.29390625 5.97265625 2.4453125 C21.44218732 4.94077228 33.9856072 10.34709281 47 19 C48.06476563 19.69609375 49.12953125 20.3921875 50.2265625 21.109375 C53.25644514 23.17481612 55.49183358 25.31684523 58 28 C58.65871094 28.67675781 59.31742188 29.35351562 59.99609375 30.05078125 C84.10829192 55.58380219 90.97623042 87.80023947 90 122 C89.54198473 133.3740458 89.54198473 133.3740458 88 138 C88.60247559 137.69819824 89.20495117 137.39639648 89.82568359 137.08544922 C112.92417664 125.58661694 135.90373638 116.76851993 162 116 C162.83144531 115.96003906 163.66289063 115.92007813 164.51953125 115.87890625 C177.16617265 115.52236744 189.74323547 118.19616498 202 121 C203.40185547 121.23009766 203.40185547 121.23009766 204.83203125 121.46484375 C205.54746094 121.64144531 206.26289062 121.81804687 207 122 C207.33 122.66 207.66 123.32 208 124 C210.15218695 125.12043799 212.30186463 126.16575152 214.5 127.1875 C220.640188 130.1545968 225.82985377 133.51855993 231 138 C231.75925781 138.61617187 232.51851562 139.23234375 233.30078125 139.8671875 C248.93428186 152.95203339 257.03607364 172.85774473 259.75 192.6875 C259.85795944 194.12336053 259.93963716 195.56135236 260 197 C260.0515625 197.92296875 260.103125 198.8459375 260.15625 199.796875 C260.44363486 209.42426764 258.80370828 218.58767537 257 228 C256.78730469 229.11246094 256.57460938 230.22492188 256.35546875 231.37109375 C255.9191945 233.58385162 255.46283262 235.79264444 255 238 C254.34 238 253.68 238 253 238 C252.649375 239.216875 252.29875 240.43375 251.9375 241.6875 C247.00827287 256.31469492 237.17326213 270.38942014 226 281 C225.34 281 224.68 281 224 281 C224 281.66 224 282.32 224 283 C222.18347698 284.62047332 220.37470913 286.09737452 218.4375 287.5625 C217.56544922 288.22523926 217.56544922 288.22523926 216.67578125 288.90136719 C200.87548174 300.67595209 183.70085764 308.08121004 165 314 C165 317.5518157 168.28796248 319.94522438 170.5625 322.5 C175.44928732 328.09288758 179.94435223 333.76552018 184 340 C184.5053125 340.76570313 185.010625 341.53140625 185.53125 342.3203125 C189 347.696875 189 347.696875 189 350 C189.66 350.33 190.32 350.66 191 351 C204.45189465 377.30031931 207.57611395 407.79330221 198.75 435.9375 C194.04631915 448.71258587 188.02605943 459.09191799 179.31152344 469.4296875 C178.43214759 470.48258129 177.57078452 471.55076614 176.72753906 472.6328125 C174.11049525 475.95059482 171.70566662 478.00776857 168 480 C166.36566244 481.13247506 164.74072149 482.27861989 163.125 483.4375 C152.39009534 491 152.39009534 491 149 491 C148.67 491.66 148.34 492.32 148 493 C145.8828125 493.74609375 145.8828125 493.74609375 143.125 494.4375 C142.13242187 494.69144531 141.13984375 494.94539063 140.1171875 495.20703125 C139.08851563 495.46871094 138.05984375 495.73039062 137 496 C134.23281984 496.77850002 131.46744373 497.56296851 128.703125 498.3515625 C121.58521719 500.05903749 114.651156 500.1527011 107.375 500.125 C106.35148437 500.12886719 105.32796875 500.13273437 104.2734375 500.13671875 C103.2834375 500.13542969 102.2934375 500.13414062 101.2734375 500.1328125 C100.38060059 500.13168457 99.48776367 500.13055664 98.56787109 500.12939453 C95.95698106 499.99783228 93.54646152 499.57689241 91 499 C90.67 499.66 90.34 500.32 90 501 C90 500.01 90 499.02 90 498 C88.824375 497.938125 87.64875 497.87625 86.4375 497.8125 C68.54897502 495.71945886 51.97303351 485.83039958 38 475 C37.01 474.34 36.02 473.68 35 473 C34.44807543 484.84785974 33.95593522 496.69513096 33.60546875 508.55078125 C31.69683562 572.4950277 27.91805914 636.23932909 22.18399048 699.95443726 C22.00252456 701.97193259 21.82186596 703.98949888 21.64135742 706.00708008 C20.88813042 714.40280545 20.10969594 722.79584432 19.3125 731.1875 C19.21599152 732.22486298 19.11948303 733.26222595 19.02005005 734.33102417 C15.72443699 769.46660908 15.72443699 769.46660908 4.859375 780.09375 C-4.950075 788.18826119 -15.88280347 791.29762339 -28.58984375 790.8828125 C-39.24436595 789.72906313 -49.42228462 785.76253771 -57 778 C-62 771.10666667 -62 771.10666667 -62 768 C-62.66 767.67 -63.32 767.34 -64 767 C-64.78599439 746.04170904 -62.56415763 725.23552117 -60.75506592 704.38079834 C-60.08160848 696.60952815 -59.41919931 688.83734586 -58.76527405 681.06440926 C-58.53754237 678.38269126 -58.30276226 675.70165981 -58.06726074 673.02061462 C-57.29030804 663.98123044 -56.77421007 655.08030068 -57 646 C-56.34 646 -55.68 646 -55 646 C-55.01694916 645.23114975 -55.03389832 644.4622995 -55.05136108 643.67015076 C-55.18059741 632.77525174 -54.38422447 622.01497722 -53.5390625 611.16015625 C-53.38640436 609.14696531 -53.23426497 607.13373498 -53.08261108 605.12046814 C-52.68346066 599.83689902 -52.27836647 594.55380391 -51.87164307 589.27081299 C-47.66008126 537.96983445 -47.66008126 537.96983445 -45.375 486.5625 C-45.33651571 484.9212103 -45.29745102 483.27993411 -45.2578125 481.63867188 C-45.16530512 477.75923424 -45.08022264 473.87971026 -45 470 C-48.69698015 471.75641026 -51.56410263 473.97901216 -54.75 476.5625 C-73.71263831 491.48445559 -96.75297174 501.18705299 -121 502 C-121.80179688 502.03996094 -122.60359375 502.07992188 -123.4296875 502.12109375 C-140.94790007 502.60930623 -158.45183061 497.88016382 -174 490 C-174.66 489.67 -175.32 489.34 -176 489 C-179.19429567 486.75216231 -182.13079809 484.22093157 -185.078125 481.6640625 C-186.37132288 480.54434238 -187.67364992 479.43508884 -188.984375 478.3359375 C-194.83833104 473.36688179 -200.17958572 468.05275026 -204.25 461.5 C-204.8275 460.675 -205.405 459.85 -206 459 C-206.99 459 -207.98 459 -209 459 C-208.67 458.01 -208.34 457.02 -208 456 C-208.98072151 453.50676898 -208.98072151 453.50676898 -210.4375 450.9375 C-213 446.18256131 -213 446.18256131 -213 444 C-213.99 444 -214.98 444 -216 444 C-216.103125 442.824375 -216.20625 441.64875 -216.3125 440.4375 C-216.74619559 436.31101403 -217.60673373 432.40995665 -218.5625 428.375 C-222.92610605 406.83779589 -219.38304603 386.44368563 -211.26953125 366.35546875 C-209.93869603 363.15162053 -209.93869603 363.15162053 -209.51171875 360.23828125 C-208.89034076 357.52034546 -207.99134935 356.90875882 -206 355 C-204.58538543 352.68207733 -203.2198699 350.3573363 -201.875 348 C-196.0062497 337.98385494 -188.6641836 329.55752968 -180.75 321.09375 C-178.80581969 319.02706642 -178.80581969 319.02706642 -178 316 C-179.00160156 315.73445313 -180.00320313 315.46890625 -181.03515625 315.1953125 C-182.37761321 314.83857569 -183.72006061 314.48180293 -185.0625 314.125 C-185.71927734 313.95097656 -186.37605469 313.77695312 -187.05273438 313.59765625 C-188.37600227 313.24565395 -189.69843599 312.89050087 -191.02001953 312.53222656 C-192.35145017 312.17433275 -193.68589609 311.82749126 -195.02294922 311.49121094 C-196.69862097 311.05355785 -198.35222823 310.53316437 -200 310 C-200.33 309.34 -200.66 308.68 -201 308 C-202.216875 307.62875 -203.43375 307.2575 -204.6875 306.875 C-218.04920304 302.61873643 -229.04151134 293.47547015 -239.74609375 284.765625 C-241.86656794 282.98358366 -241.86656794 282.98358366 -244 282 C-244.391875 281.319375 -244.78375 280.63875 -245.1875 279.9375 C-248.15482576 275.12838583 -252.01042817 270.98957183 -256 267 C-256.33 266.01 -256.66 265.02 -257 264 C-257.88545243 262.50217861 -258.77328206 261.00564801 -259.67944336 259.52026367 C-266.0618684 248.96633802 -269.93357444 238.37053654 -271 226 C-271.66 225.67 -272.32 225.34 -273 225 C-273.72565257 195.28917886 -269.29846063 171.00980736 -249 148 C-248.47148437 147.37609375 -247.94296875 146.7521875 -247.3984375 146.109375 C-237.87410815 135.65703407 -224.12099827 128.73988215 -211 124 C-210.01 124 -209.02 124 -208 124 C-208.33 123.01 -208.66 122.02 -209 121 C-208.32324219 121.19335938 -207.64648438 121.38671875 -206.94921875 121.5859375 C-203.24885617 122.1054586 -200.45881833 121.43529296 -196.8125 120.625 C-185.3806569 118.252732 -173.65966157 117.72914503 -162 118 C-161.67 118.33 -161.34 118.66 -161 119 C-159.19510555 119.27800507 -157.38923839 119.55065295 -155.57983398 119.79760742 C-137.89357994 122.28291253 -120.63741146 128.36767261 -105 137 C-104.67 137.66 -104.34 138.32 -104 139 C-103.88954098 135.16628829 -103.88954098 135.16628829 -104.48828125 132.09375 C-106.96961708 117.09208603 -104.93117747 98.74066147 -100.5859375 84.2421875 C-99.83144429 81.74124065 -99.83144429 81.74124065 -100 78 C-99.34 78 -98.68 78 -98 78 C-97.67 75.36 -97.34 72.72 -97 70 C-96.34 70 -95.68 70 -95 70 C-94.34 67.03 -93.68 64.06 -93 61 C-92.34 61 -91.68 61 -91 61 C-89.89363605 58.60931266 -89.89363605 58.60931266 -89 56 C-89.33 55.34 -89.66 54.68 -90 54 C-89.01 54 -88.02 54 -87 54 C-86.6596875 52.4221875 -86.6596875 52.4221875 -86.3125 50.8125 C-85.44087982 46.77135189 -82.91039604 44.81281716 -80 42 C-78.58407582 40.26621529 -77.1884096 38.51570764 -75.8125 36.75 C-55.99738239 12.43737214 -30.11844748 4.19633359 0 1 C0 0.67 0 0.34 0 0 Z M-215 441 C-214 443 -214 443 -214 443 Z " fill="#EC3F41" transform="translate(513,122)"/>
<path d="M0 0 C0.99 0.33 1.98 0.66 3 1 C3 1.33 3 1.66 3 2 C3.98097656 2.14695312 4.96195313 2.29390625 5.97265625 2.4453125 C21.44218732 4.94077228 33.9856072 10.34709281 47 19 C48.06476563 19.69609375 49.12953125 20.3921875 50.2265625 21.109375 C53.25644514 23.17481612 55.49183358 25.31684523 58 28 C58.65871094 28.67675781 59.31742188 29.35351562 59.99609375 30.05078125 C84.10829192 55.58380219 90.97623042 87.80023947 90 122 C89.54198473 133.3740458 89.54198473 133.3740458 88 138 C88.60247559 137.69819824 89.20495117 137.39639648 89.82568359 137.08544922 C112.92417664 125.58661694 135.90373638 116.76851993 162 116 C162.83144531 115.96003906 163.66289063 115.92007813 164.51953125 115.87890625 C177.16617265 115.52236744 189.74323547 118.19616498 202 121 C203.40185547 121.23009766 203.40185547 121.23009766 204.83203125 121.46484375 C205.54746094 121.64144531 206.26289062 121.81804687 207 122 C207.33 122.66 207.66 123.32 208 124 C210.15218695 125.12043799 212.30186463 126.16575152 214.5 127.1875 C220.640188 130.1545968 225.82985377 133.51855993 231 138 C231.75925781 138.61617187 232.51851562 139.23234375 233.30078125 139.8671875 C248.93428186 152.95203339 257.03607364 172.85774473 259.75 192.6875 C259.85795944 194.12336053 259.93963716 195.56135236 260 197 C260.0515625 197.92296875 260.103125 198.8459375 260.15625 199.796875 C260.44363486 209.42426764 258.80370828 218.58767537 257 228 C256.78730469 229.11246094 256.57460938 230.22492188 256.35546875 231.37109375 C255.9191945 233.58385162 255.46283262 235.79264444 255 238 C254.34 238 253.68 238 253 238 C252.649375 239.216875 252.29875 240.43375 251.9375 241.6875 C247.00827287 256.31469492 237.17326213 270.38942014 226 281 C225.34 281 224.68 281 224 281 C224 281.66 224 282.32 224 283 C222.18347698 284.62047332 220.37470913 286.09737452 218.4375 287.5625 C217.56544922 288.22523926 217.56544922 288.22523926 216.67578125 288.90136719 C200.87548174 300.67595209 183.70085764 308.08121004 165 314 C165 317.5518157 168.28796248 319.94522438 170.5625 322.5 C175.44928732 328.09288758 179.94435223 333.76552018 184 340 C184.5053125 340.76570313 185.010625 341.53140625 185.53125 342.3203125 C189 347.696875 189 347.696875 189 350 C189.66 350.33 190.32 350.66 191 351 C204.45189465 377.30031931 207.57611395 407.79330221 198.75 435.9375 C194.04631915 448.71258587 188.02605943 459.09191799 179.31152344 469.4296875 C178.43214759 470.48258129 177.57078452 471.55076614 176.72753906 472.6328125 C174.11049525 475.95059482 171.70566662 478.00776857 168 480 C166.36566244 481.13247506 164.74072149 482.27861989 163.125 483.4375 C152.39009534 491 152.39009534 491 149 491 C148.67 491.66 148.34 492.32 148 493 C145.8828125 493.74609375 145.8828125 493.74609375 143.125 494.4375 C142.13242187 494.69144531 141.13984375 494.94539063 140.1171875 495.20703125 C139.08851563 495.46871094 138.05984375 495.73039062 137 496 C134.23281984 496.77850002 131.46744373 497.56296851 128.703125 498.3515625 C121.58521719 500.05903749 114.651156 500.1527011 107.375 500.125 C106.35148437 500.12886719 105.32796875 500.13273437 104.2734375 500.13671875 C103.2834375 500.13542969 102.2934375 500.13414062 101.2734375 500.1328125 C100.38060059 500.13168457 99.48776367 500.13055664 98.56787109 500.12939453 C95.95698106 499.99783228 93.54646152 499.57689241 91 499 C90.67 499.66 90.34 500.32 90 501 C90 500.01 90 499.02 90 498 C88.824375 497.938125 87.64875 497.87625 86.4375 497.8125 C68.54897502 495.71945886 51.97303351 485.83039958 38 475 C37.01 474.34 36.02 473.68 35 473 C34.44807543 484.84785974 33.95593522 496.69513096 33.60546875 508.55078125 C31.69683562 572.4950277 27.91805914 636.23932909 22.18399048 699.95443726 C22.00252456 701.97193259 21.82186596 703.98949888 21.64135742 706.00708008 C20.88813042 714.40280545 20.10969594 722.79584432 19.3125 731.1875 C19.21599152 732.22486298 19.11948303 733.26222595 19.02005005 734.33102417 C15.72443699 769.46660908 15.72443699 769.46660908 4.859375 780.09375 C-4.950075 788.18826119 -15.88280347 791.29762339 -28.58984375 790.8828125 C-39.24436595 789.72906313 -49.42228462 785.76253771 -57 778 C-62 771.10666667 -62 771.10666667 -62 768 C-62.66 767.67 -63.32 767.34 -64 767 C-64.78599439 746.04170904 -62.56415763 725.23552117 -60.75506592 704.38079834 C-60.08160848 696.60952815 -59.41919931 688.83734586 -58.76527405 681.06440926 C-58.53754237 678.38269126 -58.30276226 675.70165981 -58.06726074 673.02061462 C-57.29030804 663.98123044 -56.77421007 655.08030068 -57 646 C-56.34 646 -55.68 646 -55 646 C-55.01694916 645.23114975 -55.03389832 644.4622995 -55.05136108 643.67015076 C-55.18059741 632.77525174 -54.38422447 622.01497722 -53.5390625 611.16015625 C-53.38640436 609.14696531 -53.23426497 607.13373498 -53.08261108 605.12046814 C-52.68346066 599.83689902 -52.27836647 594.55380391 -51.87164307 589.27081299 C-47.66008126 537.96983445 -47.66008126 537.96983445 -45.375 486.5625 C-45.33651571 484.9212103 -45.29745102 483.27993411 -45.2578125 481.63867188 C-45.16530512 477.75923424 -45.08022264 473.87971026 -45 470 C-48.69698015 471.75641026 -51.56410263 473.97901216 -54.75 476.5625 C-73.71263831 491.48445559 -96.75297174 501.18705299 -121 502 C-121.80179688 502.03996094 -122.60359375 502.07992188 -123.4296875 502.12109375 C-140.94790007 502.60930623 -158.45183061 497.88016382 -174 490 C-174.66 489.67 -175.32 489.34 -176 489 C-179.19429567 486.75216231 -182.13079809 484.22093157 -185.078125 481.6640625 C-186.37132288 480.54434238 -187.67364992 479.43508884 -188.984375 478.3359375 C-194.83833104 473.36688179 -200.17958572 468.05275026 -204.25 461.5 C-204.8275 460.675 -205.405 459.85 -206 459 C-206.99 459 -207.98 459 -209 459 C-208.67 458.01 -208.34 457.02 -208 456 C-208.98072151 453.50676898 -208.98072151 453.50676898 -210.4375 450.9375 C-213 446.18256131 -213 446.18256131 -213 444 C-213.99 444 -214.98 444 -216 444 C-216.103125 442.824375 -216.20625 441.64875 -216.3125 440.4375 C-216.74619559 436.31101403 -217.60673373 432.40995665 -218.5625 428.375 C-222.92610605 406.83779589 -219.38304603 386.44368563 -211.26953125 366.35546875 C-209.93869603 363.15162053 -209.93869603 363.15162053 -209.51171875 360.23828125 C-208.89034076 357.52034546 -207.99134935 356.90875882 -206 355 C-204.58538543 352.68207733 -203.2198699 350.3573363 -201.875 348 C-196.0062497 337.98385494 -188.6641836 329.55752968 -180.75 321.09375 C-178.80581969 319.02706642 -178.80581969 319.02706642 -178 316 C-179.00160156 315.73445313 -180.00320313 315.46890625 -181.03515625 315.1953125 C-182.37761321 314.83857569 -183.72006061 314.48180293 -185.0625 314.125 C-185.71927734 313.95097656 -186.37605469 313.77695312 -187.05273438 313.59765625 C-188.37600227 313.24565395 -189.69843599 312.89050087 -191.02001953 312.53222656 C-192.35145017 312.17433275 -193.68589609 311.82749126 -195.02294922 311.49121094 C-196.69862097 311.05355785 -198.35222823 310.53316437 -200 310 C-200.33 309.34 -200.66 308.68 -201 308 C-202.216875 307.62875 -203.43375 307.2575 -204.6875 306.875 C-218.04920304 302.61873643 -229.04151134 293.47547015 -239.74609375 284.765625 C-241.86656794 282.98358366 -241.86656794 282.98358366 -244 282 C-244.391875 281.319375 -244.78375 280.63875 -245.1875 279.9375 C-248.15482576 275.12838583 -252.01042817 270.98957183 -256 267 C-256.33 266.01 -256.66 265.02 -257 264 C-257.88545243 262.50217861 -258.77328206 261.00564801 -259.67944336 259.52026367 C-266.0618684 248.96633802 -269.93357444 238.37053654 -271 226 C-271.66 225.67 -272.32 225.34 -273 225 C-273.72565257 195.28917886 -269.29846063 171.00980736 -249 148 C-248.47148437 147.37609375 -247.94296875 146.7521875 -247.3984375 146.109375 C-237.87410815 135.65703407 -224.12099827 128.73988215 -211 124 C-210.01 124 -209.02 124 -208 124 C-208.33 123.01 -208.66 122.02 -209 121 C-208.32324219 121.19335938 -207.64648438 121.38671875 -206.94921875 121.5859375 C-203.24885617 122.1054586 -200.45881833 121.43529296 -196.8125 120.625 C-185.3806569 118.252732 -173.65966157 117.72914503 -162 118 C-161.67 118.33 -161.34 118.66 -161 119 C-159.19510555 119.27800507 -157.38923839 119.55065295 -155.57983398 119.79760742 C-137.89357994 122.28291253 -120.63741146 128.36767261 -105 137 C-104.67 137.66 -104.34 138.32 -104 139 C-103.88954098 135.16628829 -103.88954098 135.16628829 -104.48828125 132.09375 C-106.96961708 117.09208603 -104.93117747 98.74066147 -100.5859375 84.2421875 C-99.83144429 81.74124065 -99.83144429 81.74124065 -100 78 C-99.34 78 -98.68 78 -98 78 C-97.67 75.36 -97.34 72.72 -97 70 C-96.34 70 -95.68 70 -95 70 C-94.34 67.03 -93.68 64.06 -93 61 C-92.34 61 -91.68 61 -91 61 C-89.89363605 58.60931266 -89.89363605 58.60931266 -89 56 C-89.33 55.34 -89.66 54.68 -90 54 C-89.01 54 -88.02 54 -87 54 C-86.6596875 52.4221875 -86.6596875 52.4221875 -86.3125 50.8125 C-85.44087982 46.77135189 -82.91039604 44.81281716 -80 42 C-78.58407582 40.26621529 -77.1884096 38.51570764 -75.8125 36.75 C-55.99738239 12.43737214 -30.11844748 4.19633359 0 1 C0 0.67 0 0.34 0 0 Z M-59.125 48.1875 C-77.44837711 69.84580669 -85.66175314 96.89521956 -84.26025391 125.11376953 C-83.27444523 136.04644325 -80.56815891 146.9086135 -77.85546875 157.52734375 C-75.98009314 165.14016985 -75.98009314 165.14016985 -78.0625 168.9375 C-80.45676698 170.25048512 -82.08226527 170.10491105 -84.73657227 169.67114258 C-89.98955697 168.11354847 -94.69178119 165.05407891 -99.4375 162.375 C-114.1733508 154.22812311 -128.69992176 147.36280053 -145 143 C-146.16917969 142.67902344 -147.33835937 142.35804688 -148.54296875 142.02734375 C-172.33502741 136.54471501 -199.88893258 137.87345127 -221 151 C-226.12293785 154.53820057 -230.76349594 158.42903509 -235 163 C-235.79664063 163.78890625 -235.79664063 163.78890625 -236.609375 164.59375 C-248.3130504 176.81528714 -253.46660594 194.31479282 -253.2109375 210.984375 C-251.50077848 235.433315 -241.20363507 254.84566133 -223.33984375 271.4765625 C-203.62091374 288.37850251 -177.17210279 297.71709574 -151.68408203 300.97558594 C-147.69326553 301.52084555 -144.86953871 302.06540878 -142 305 C-141.25 307.6875 -141.25 307.6875 -142 311 C-145.37579266 315.2806443 -149.63919965 318.70054844 -153.75 322.25 C-172.07556956 338.13216029 -186.55020242 357.11620168 -195 380 C-195.41378906 381.07636719 -195.82757813 382.15273438 -196.25390625 383.26171875 C-202.45679682 402.2161962 -200.94514611 423.9462853 -192.203125 441.72265625 C-182.93309562 459.56344674 -167.87468696 471.57076673 -149 478 C-125.49722346 484.92998973 -102.80289157 480.72209635 -81.4375 469.6875 C-75.23099698 466.26245721 -69.5880358 462.35080206 -64 458 C-62.71222656 457.01966797 -62.71222656 457.01966797 -61.3984375 456.01953125 C-41.97104429 440.74696402 -25.29397312 420.85938434 -13.44140625 399.14453125 C-12 397 -12 397 -8.5625 395.9375 C-5 396 -5 396 -3.06640625 397.51171875 C-0.38073836 400.74568935 1.57497166 404.21609899 3.625 407.875 C21.77017061 439.30383025 49.08692389 466.24130985 84.44921875 477.0703125 C105.97203059 482.70554816 127.48261503 480.64053405 147 470 C165.53176326 458.65449406 176.74254844 441.52105064 181.8125 420.65625 C186.25300173 395.74010142 179.99170339 370.88419721 166 350 C155.34008159 334.73913138 142.42555569 323.08760299 127.48364258 312.11645508 C126 311 126 311 125 310 C125.28730055 307.66055264 125.61936779 305.3260857 126 303 C132.42655021 300.34971827 138.74760691 298.92430615 145.5625 297.625 C175.8192236 291.52564688 205.4624293 278.1597594 223.87109375 252.30859375 C236.42210849 232.80270478 242.75236251 210.51198512 237.81298828 187.41894531 C235.11293155 176.39217705 230.37870261 167.58437297 223 159 C222.50113281 158.39414062 222.00226563 157.78828125 221.48828125 157.1640625 C210.5268504 144.96015208 192.39589703 138.77247221 176.41918945 137.77685547 C172.4448473 137.65967211 168.47564373 137.61344849 164.5 137.625 C163.44218826 137.62581573 163.44218826 137.62581573 162.36300659 137.62664795 C150.83764803 137.66742836 140.06016898 138.61487813 129 142 C127.98172119 142.29753174 127.98172119 142.29753174 126.94287109 142.60107422 C109.53754268 147.79663295 92.70887432 156.21257894 77.40234375 165.91503906 C73.59862864 168.28261789 70.49901892 169.71227205 66 170 C63.5625 169.125 63.5625 169.125 62 167 C62.42414224 160.26674187 63.85188061 153.9160397 65.4375 147.375 C72.63285322 116.44914019 72.35894244 85.70638525 55.51953125 57.80078125 C45.02608981 41.38902231 28.7409022 29.46918546 9.9152832 24.58227539 C5.12209508 23.62492226 0.4364726 23.55284766 -4.4375 23.625 C-5.95452515 23.64240234 -5.95452515 23.64240234 -7.50219727 23.66015625 C-28.00522036 24.10964624 -45.13437747 33.37389968 -59.125 48.1875 Z M-215 441 C-214 443 -214 443 -214 443 Z " fill="#010100" transform="translate(513,122)"/>
<path d="M0 0 C2.22518586 2.87613576 4.16495604 5.83709033 6.0625 8.9375 C8.92167295 13.46706398 11.98446955 17.760487 15.25 22 C15.67418213 22.55163818 16.09836426 23.10327637 16.53540039 23.67163086 C18.87531666 26.69952055 18.87531666 26.69952055 21.61538696 29.3530426 C23.53468415 31.63599142 23.38049669 33.14213548 23.38818359 36.10131836 C23.39750412 37.16010193 23.40682465 38.2188855 23.41642761 39.30975342 C23.41049088 40.47468323 23.40455414 41.63961304 23.3984375 42.83984375 C23.40253128 44.07140198 23.40662506 45.30296021 23.4108429 46.57183838 C23.41594416 49.97768828 23.40586311 53.38275668 23.38631821 56.78850937 C23.37496821 58.94353512 23.36878436 61.09852111 23.36392212 63.25357056 C23.2679991 99.53414027 21.79601763 135.76865837 20 172 C19.94434875 173.12937988 19.88869751 174.25875977 19.83135986 175.42236328 C18.47831353 202.47690017 16.09594985 229.46004995 13.79115295 256.44668961 C13.64068608 258.20917281 13.49052119 259.97168183 13.34068298 261.7342186 C11.78375887 280.04460413 10.15753976 298.34904329 8.21519279 316.62313461 C8.05066311 318.18007891 7.88947589 319.73738073 7.7319355 321.29504776 C5.8912652 339.37366738 5.8912652 339.37366738 1.38671875 345.0234375 C0.82597656 345.46945312 0.26523437 345.91546875 -0.3125 346.375 C-1.14201172 347.06722656 -1.14201172 347.06722656 -1.98828125 347.7734375 C-8.76512497 351.90533833 -16.32513613 351.80965597 -24 351 C-29.38635109 349.42487905 -32.93356517 347.21878266 -36.625 343 C-41.04880937 333.35964631 -37.57666458 319.17929437 -36.6796875 308.80859375 C-36.53866845 307.13025119 -36.39817486 305.45186442 -36.25816345 303.7734375 C-35.95876249 300.19480565 -35.6562412 296.61645729 -35.35122681 293.03829956 C-34.86683693 287.35230278 -34.39084498 281.66562298 -33.91674805 275.97875977 C-33.83675662 275.01945777 -33.75676519 274.06015577 -33.67434978 273.07178402 C-33.51179078 271.12204206 -33.34925902 269.17229783 -33.18675423 267.22255135 C-32.94034797 264.268563 -32.69332622 261.31462667 -32.44615173 258.36070251 C-25.02545292 169.97423386 -25.02545292 169.97423386 -19.8125 81.4375 C-19.77082703 80.55225647 -19.72915405 79.66701294 -19.68621826 78.75494385 C-19.25455012 69.4567301 -18.96268734 60.17966931 -18.94140625 50.87109375 C-18.92253908 48.46606013 -18.90158856 46.06105106 -18.88046265 43.65603638 C-18.87520943 41.46244978 -18.91403292 39.27292991 -18.95629883 37.07983398 C-18.89121687 27.31216702 -16.57943466 22.99285039 -10 16 C-8.03242601 13.20441784 -6.26573913 10.30124063 -4.5 7.375 C-4.05914062 6.65699219 -3.61828125 5.93898438 -3.1640625 5.19921875 C-2.10336365 3.46981845 -1.05075132 1.73546222 0 0 Z " fill="#6BA757" transform="translate(505,544)"/>
<path d="M0 0 C12.55356858 9.14716451 21.74568098 22.69406784 25 38 C26.47536694 57.53182329 24.34527526 75.21294925 11.26293945 90.63012695 C-0.63494902 103.98045775 -15.39926036 110.91912 -33.21875 112.23828125 C-50.47998584 112.62871397 -65.20068306 107.21125837 -77.71484375 95.3515625 C-90.66203091 82.02813229 -96.38704261 65.93255659 -96.21875 47.44140625 C-95.87624926 42.05313561 -94.63241143 37.13043594 -93 32 C-92.73316406 31.14664063 -92.46632813 30.29328125 -92.19140625 29.4140625 C-86.73609113 14.04219678 -74.35916604 1.82833488 -59.86474609 -5.17041016 C-40.23405871 -13.90372722 -17.92503417 -11.59345773 0 0 Z " fill="#FDC82E" transform="translate(540,343)"/>
<path d="M0 0 C0.66515625 0.49242187 1.3303125 0.98484375 2.015625 1.4921875 C16.18774614 12.79158138 24.88716732 30.44761944 28 48 C29.61871366 71.8564903 26.11914869 94.17428436 10.046875 112.76953125 C9.37140625 113.50558594 8.6959375 114.24164063 8 115 C7.32453125 115.76699219 6.6490625 116.53398437 5.953125 117.32421875 C-7.38777457 131.66325131 -26.53514659 139.38617987 -45.91015625 140.28515625 C-68.83132238 140.89667855 -88.86489904 134.47420535 -105.77294922 118.74682617 C-120.63531339 104.29691264 -128.05078424 85.22380707 -128.38085938 64.61743164 C-128.33854493 43.9098012 -122.71410557 25.83652667 -109 10 C-108.39414062 9.19691406 -107.78828125 8.39382813 -107.1640625 7.56640625 C-80.44056911 -24.12553447 -31.27446071 -23.40845999 0 0 Z M-94 20 C-94.6496875 20.63808594 -95.299375 21.27617187 -95.96875 21.93359375 C-106.69045666 33.24311328 -111.35737055 49.08647522 -111.21875 64.38671875 C-110.19137296 81.35678594 -103.03324536 97.15547646 -90.62890625 108.8671875 C-77.54048511 119.48572828 -61.89372187 124.57194946 -45 123 C-27.57010565 120.42260073 -11.87146869 112.83479852 -1.12890625 98.50390625 C9.64237189 82.54388337 12.71861907 64.08445208 9.31640625 45.20703125 C8.39994659 42.32835921 7.33033927 39.71041086 6 37 C5.57589844 36.07445312 5.15179687 35.14890625 4.71484375 34.1953125 C-2.95240801 18.77538 -15.88795307 8.81556607 -31.83984375 2.95703125 C-54.72208856 -3.72872752 -77.39666019 3.42509057 -94 20 Z " fill="#020100" transform="translate(555,332)"/>
<path d="M0 0 C0 6.27 0 12.54 0 19 C-0.99 19 -1.98 19 -3 19 C-3 13.06 -3 7.12 -3 1 C-1 0 -1 0 0 0 Z " fill="#D23A3C" transform="translate(583,224)"/>
<path d="M0 0 C4.0744433 1.35814777 5.42021951 4.1308426 7.6875 7.5625 C8.10322266 8.17802734 8.51894531 8.79355469 8.94726562 9.42773438 C9.97193162 10.94706671 10.98690678 12.47292657 12 14 C11.67 14.66 11.34 15.32 11 16 C10.45730469 15.24074219 9.91460938 14.48148437 9.35546875 13.69921875 C8.64003906 12.70535156 7.92460938 11.71148437 7.1875 10.6875 C6.47980469 9.70136719 5.77210938 8.71523438 5.04296875 7.69921875 C3.15411598 5.06718871 3.15411598 5.06718871 1.23828125 3.26953125 C0 2 0 2 0 0 Z " fill="#EB575B" transform="translate(562,338)"/>
<path d="M0 0 C0 3.3 0 6.6 0 10 C-0.99 10.495 -0.99 10.495 -2 11 C-3.1577506 7.52674819 -3.06866652 4.63932552 -3 1 C-1 0 -1 0 0 0 Z " fill="#659D52" transform="translate(481,732)"/>
<path d="M0 0 C0.66 0 1.32 0 2 0 C2.433125 1.093125 2.86625 2.18625 3.3125 3.3125 C4.49495641 6.09408793 5.60800043 8.06361939 8 10 C4.72847271 9.02738378 3.25454871 8.34232413 1.1875 5.5625 C0 3 0 3 0 0 Z " fill="#88CC6E" transform="translate(468,882)"/>
<path d="M0 0 C4.76923077 4.30769231 4.76923077 4.30769231 5 8 C4.36932772 9.35073117 3.70576732 10.68694451 3 12 C2.49440092 10.56445975 1.9957251 9.1264798 1.5 7.6875 C1.2215625 6.88699219 0.943125 6.08648437 0.65625 5.26171875 C0 3 0 3 0 0 Z " fill="#F15457" transform="translate(578,362)"/>
<path d="M0 0 C0.33 0 0.66 0 1 0 C1 2.97 1 5.94 1 9 C0.01 9.33 -0.98 9.66 -2 10 C-2 8.02 -2 6.04 -2 4 C-1.34 4 -0.68 4 0 4 C0 2.68 0 1.36 0 0 Z " fill="#EE4D4F" transform="translate(750,332)"/>
<path d="M0 0 C0.33 0 0.66 0 1 0 C1 1.98 1 3.96 1 6 C-0.0625 4.125 -0.0625 4.125 -1 2 C-0.67 1.34 -0.34 0.68 0 0 Z " fill="#181D13" transform="translate(465,631)"/>
<path d="M0 0 C0.33 1.32 0.66 2.64 1 4 C0.34 3.34 -0.32 2.68 -1 2 C-0.67 1.34 -0.34 0.68 0 0 Z " fill="#1A2216" transform="translate(459,720)"/>
<path d="M0 0 C1.65 0 3.3 0 5 0 C5 0.33 5 0.66 5 1 C3.35 1 1.7 1 0 1 C0 0.67 0 0.34 0 0 Z " fill="#1F1B15" transform="translate(625,623)"/>
<path d="M0 0 C1.65 0 3.3 0 5 0 C5 0.33 5 0.66 5 1 C3.35 1 1.7 1 0 1 C0 0.67 0 0.34 0 0 Z " fill="#1D1C15" transform="translate(612,623)"/>
<path d="M0 0 C4 1 4 1 4 1 Z " fill="#1E2117" transform="translate(362,622)"/>
<path d="M0 0 C1 4 1 4 1 4 Z " fill="#2A1E1C" transform="translate(711,487)"/>
<path d="M0 0 C0.99 0.495 0.99 0.495 2 1 C1.67 1.66 1.34 2.32 1 3 C0.67 2.01 0.34 1.02 0 0 Z " fill="#251D19" transform="translate(251,380)"/>
<path d="M0 0 C0.66 0.33 1.32 0.66 2 1 C1.01 1 0.02 1 -1 1 C-0.67 0.67 -0.34 0.34 0 0 Z " fill="#231614" transform="translate(616,250)"/>
<path d="M0 0 C4 1 4 1 4 1 Z " fill="#2E1F1D" transform="translate(370,243)"/>
<path d="M0 0 C1 4 1 4 1 4 Z " fill="#291D1A" transform="translate(409,212)"/>
<path d="" fill="#232D1F" transform="translate(0,0)"/>
<path d="" fill="#1F281A" transform="translate(0,0)"/>
<path d="" fill="#1D2619" transform="translate(0,0)"/>
<path d="" fill="#1B2319" transform="translate(0,0)"/>
<path d="M0 0 C0.99 0.495 0.99 0.495 2 1 C1.01 1.495 1.01 1.495 0 2 C0 1.34 0 0.68 0 0 Z " fill="#1A2316" transform="translate(457,739)"/>
<path d="" fill="#1B2418" transform="translate(0,0)"/>
<path d="" fill="#192018" transform="translate(0,0)"/>
<path d="" fill="#191D13" transform="translate(0,0)"/>
<path d="M0 0 C3 1 3 1 3 1 Z " fill="#1B1813" transform="translate(621,623)"/>
<path d="M0 0 C0.99 0.495 0.99 0.495 2 1 C1.01 1.495 1.01 1.495 0 2 C0 1.34 0 0.68 0 0 Z " fill="#202319" transform="translate(354,619)"/>
<path d="M0 0 C3 1 3 1 3 1 Z " fill="#171B12" transform="translate(464,616)"/>
<path d="" fill="#151A11" transform="translate(0,0)"/>
<path d="" fill="#23211C" transform="translate(0,0)"/>
<path d="M0 0 C0.99 0.495 0.99 0.495 2 1 C1.01 1.495 1.01 1.495 0 2 C0 1.34 0 0.68 0 0 Z " fill="#221714" transform="translate(694,456)"/>
<path d="" fill="#241C19" transform="translate(0,0)"/>
<path d="M0 0 C0.66 0 1.32 0 2 0 C1.67 0.66 1.34 1.32 1 2 C0.67 1.34 0.34 0.68 0 0 Z " fill="#2C2320" transform="translate(248,283)"/>
<path d="M0 0 C0.33 0.66 0.66 1.32 1 2 C0.34 1.67 -0.32 1.34 -1 1 C-0.67 0.67 -0.34 0.34 0 0 Z " fill="#2D1F1F" transform="translate(711,240)"/>
<path d="M0 0 C3 1 3 1 3 1 Z " fill="#2F221F" transform="translate(320,240)"/>
<path d="" fill="#1E271B" transform="translate(0,0)"/>
<path d="" fill="#21291E" transform="translate(0,0)"/>
<path d="" fill="#1F2A1B" transform="translate(0,0)"/>
<path d="" fill="#20281A" transform="translate(0,0)"/>
<path d="" fill="#20271A" transform="translate(0,0)"/>
<path d="" fill="#1E2719" transform="translate(0,0)"/>
<path d="" fill="#1E251B" transform="translate(0,0)"/>
<path d="" fill="#1A2118" transform="translate(0,0)"/>
<path d="" fill="#1B2216" transform="translate(0,0)"/>
<path d="" fill="#1D2518" transform="translate(0,0)"/>
<path d="" fill="#1B2317" transform="translate(0,0)"/>
<path d="" fill="#1C2217" transform="translate(0,0)"/>
<path d="" fill="#1A2016" transform="translate(0,0)"/>
<path d="" fill="#192014" transform="translate(0,0)"/>
<path d="M0 0 C2 1 2 1 2 1 Z " fill="#23201A" transform="translate(635,622)"/>
<path d="M0 0 C2 1 2 1 2 1 Z " fill="#202118" transform="translate(359,621)"/>
<path d="M0 0 C2 1 2 1 2 1 Z " fill="#1D1D15" transform="translate(421,619)"/>
<path d="M0 0 C2 1 2 1 2 1 Z " fill="#1A1812" transform="translate(570,611)"/>
<path d="" fill="#171911" transform="translate(0,0)"/>
<path d="" fill="#151911" transform="translate(0,0)"/>
<path d="" fill="#171610" transform="translate(0,0)"/>
<path d="" fill="#1F201A" transform="translate(0,0)"/>
<path d="" fill="#23231A" transform="translate(0,0)"/>
<path d="" fill="#21201B" transform="translate(0,0)"/>
<path d="" fill="#2F2522" transform="translate(0,0)"/>
<path d="M0 0 C2 1 2 1 2 1 Z " fill="#22201C" transform="translate(290,536)"/>
<path d="" fill="#2A1F1E" transform="translate(0,0)"/>
<path d="" fill="#2D1F1D" transform="translate(0,0)"/>
<path d="" fill="#221914" transform="translate(0,0)"/>
<path d="M0 0 C2 1 2 1 2 1 Z " fill="#1E1713" transform="translate(313,456)"/>
<path d="M0 0 C2 1 2 1 2 1 Z " fill="#1F1712" transform="translate(678,436)"/>
<path d="M0 0 C2 1 2 1 2 1 Z " fill="#1E1613" transform="translate(325,436)"/>
<path d="M0 0 C2 1 2 1 2 1 Z " fill="#211915" transform="translate(301,427)"/>
<path d="M0 0 C2 1 2 1 2 1 Z " fill="#221B18" transform="translate(289,420)"/>
<path d="" fill="#2C2221" transform="translate(0,0)"/>
<path d="" fill="#2C2221" transform="translate(0,0)"/>
<path d="" fill="#221815" transform="translate(0,0)"/>
<path d="" fill="#271B17" transform="translate(0,0)"/>
<path d="M0 0 C2 1 2 1 2 1 Z " fill="#30201F" transform="translate(728,248)"/>
<path d="M0 0 C2 1 2 1 2 1 Z " fill="#2C1F1C" transform="translate(355,240)"/>
<path d="M0 0 C2 1 2 1 2 1 Z " fill="#241816" transform="translate(604,233)"/>
<path d="" fill="#2A201B" transform="translate(0,0)"/>
<path d="M0 0 C2 1 2 1 2 1 Z " fill="#2C1E1B" transform="translate(409,200)"/>
<path d="" fill="#2E2220" transform="translate(0,0)"/>
<path d="" fill="#2D201C" transform="translate(0,0)"/>
<path d="" fill="#2B1E1B" transform="translate(0,0)"/>
<path d="M0 0 C2 1 2 1 2 1 Z " fill="#2D2120" transform="translate(449,144)"/>
<path d="" fill="#342421" transform="translate(0,0)"/>
<path d="M0 0 C2 1 2 1 2 1 Z " fill="#372827" transform="translate(507,122)"/>
<path d="" fill="#646C61" transform="translate(0,0)"/>
<path d="" fill="#20281A" transform="translate(0,0)"/>
<path d="" fill="#252C1F" transform="translate(0,0)"/>
<path d="" fill="#222C1D" transform="translate(0,0)"/>
<path d="" fill="#202C1F" transform="translate(0,0)"/>
<path d="" fill="#263223" transform="translate(0,0)"/>
<path d="" fill="#828580" transform="translate(0,0)"/>
<path d="" fill="#263222" transform="translate(0,0)"/>
<path d="" fill="#252F20" transform="translate(0,0)"/>
<path d="" fill="#202A1A" transform="translate(0,0)"/>
<path d="" fill="#262D22" transform="translate(0,0)"/>
<path d="" fill="#22291D" transform="translate(0,0)"/>
<path d="" fill="#1F2619" transform="translate(0,0)"/>
<path d="" fill="#1E261A" transform="translate(0,0)"/>
<path d="" fill="#1E281B" transform="translate(0,0)"/>
<path d="" fill="#1D2519" transform="translate(0,0)"/>
<path d="" fill="#1C2317" transform="translate(0,0)"/>
<path d="" fill="#1F2919" transform="translate(0,0)"/>
<path d="" fill="#212819" transform="translate(0,0)"/>
<path d="" fill="#1C2219" transform="translate(0,0)"/>
<path d="" fill="#1C2719" transform="translate(0,0)"/>
<path d="" fill="#1E281A" transform="translate(0,0)"/>
<path d="" fill="#1F291A" transform="translate(0,0)"/>
<path d="" fill="#1D291B" transform="translate(0,0)"/>
<path d="" fill="#1D271A" transform="translate(0,0)"/>
<path d="" fill="#1F271A" transform="translate(0,0)"/>
<path d="" fill="#1D271B" transform="translate(0,0)"/>
<path d="" fill="#1E2519" transform="translate(0,0)"/>
<path d="" fill="#1E251A" transform="translate(0,0)"/>
<path d="" fill="#1C2418" transform="translate(0,0)"/>
<path d="" fill="#1B2117" transform="translate(0,0)"/>
<path d="" fill="#1E2318" transform="translate(0,0)"/>
<path d="" fill="#1B2318" transform="translate(0,0)"/>
<path d="" fill="#1D2217" transform="translate(0,0)"/>
<path d="" fill="#1C2218" transform="translate(0,0)"/>
<path d="" fill="#1A2116" transform="translate(0,0)"/>
<path d="" fill="#1C2016" transform="translate(0,0)"/>
<path d="" fill="#1D2218" transform="translate(0,0)"/>
<path d="" fill="#1D2318" transform="translate(0,0)"/>
<path d="" fill="#1A2218" transform="translate(0,0)"/>
<path d="" fill="#1C2217" transform="translate(0,0)"/>
<path d="" fill="#1C2515" transform="translate(0,0)"/>
<path d="" fill="#1B2318" transform="translate(0,0)"/>
<path d="" fill="#1B2317" transform="translate(0,0)"/>
<path d="" fill="#1D2518" transform="translate(0,0)"/>
<path d="" fill="#1F2218" transform="translate(0,0)"/>
<path d="" fill="#1A1E16" transform="translate(0,0)"/>
<path d="" fill="#182016" transform="translate(0,0)"/>
<path d="" fill="#1C1E16" transform="translate(0,0)"/>
<path d="" fill="#181D14" transform="translate(0,0)"/>
<path d="" fill="#24221C" transform="translate(0,0)"/>
<path d="" fill="#1E1C16" transform="translate(0,0)"/>
<path d="" fill="#1D1E16" transform="translate(0,0)"/>
<path d="" fill="#1D2017" transform="translate(0,0)"/>
<path d="" fill="#1D2017" transform="translate(0,0)"/>
<path d="" fill="#1D1D15" transform="translate(0,0)"/>
<path d="" fill="#1C1F16" transform="translate(0,0)"/>
<path d="" fill="#1E2018" transform="translate(0,0)"/>
<path d="" fill="#1E231A" transform="translate(0,0)"/>
<path d="" fill="#23211A" transform="translate(0,0)"/>
<path d="" fill="#1F1D17" transform="translate(0,0)"/>
<path d="" fill="#1D1F18" transform="translate(0,0)"/>
<path d="" fill="#1E1C15" transform="translate(0,0)"/>
<path d="" fill="#1E1C16" transform="translate(0,0)"/>
<path d="" fill="#1E1B14" transform="translate(0,0)"/>
<path d="" fill="#1D1C15" transform="translate(0,0)"/>
<path d="" fill="#232219" transform="translate(0,0)"/>
<path d="" fill="#24201B" transform="translate(0,0)"/>
<path d="" fill="#211D16" transform="translate(0,0)"/>
<path d="" fill="#1E1B17" transform="translate(0,0)"/>
<path d="" fill="#1D1B14" transform="translate(0,0)"/>
<path d="" fill="#1E1E17" transform="translate(0,0)"/>
<path d="" fill="#201D16" transform="translate(0,0)"/>
<path d="" fill="#1E1A14" transform="translate(0,0)"/>
<path d="" fill="#171F12" transform="translate(0,0)"/>
<path d="" fill="#1F2018" transform="translate(0,0)"/>
<path d="" fill="#1F1A15" transform="translate(0,0)"/>
<path d="" fill="#1C1B15" transform="translate(0,0)"/>
<path d="" fill="#28231D" transform="translate(0,0)"/>
<path d="" fill="#1B1813" transform="translate(0,0)"/>
<path d="" fill="#1E1F18" transform="translate(0,0)"/>
<path d="" fill="#1D2017" transform="translate(0,0)"/>
<path d="" fill="#1D1A11" transform="translate(0,0)"/>
<path d="" fill="#1B1813" transform="translate(0,0)"/>
<path d="" fill="#1D1B14" transform="translate(0,0)"/>
<path d="" fill="#1A1713" transform="translate(0,0)"/>
<path d="" fill="#171711" transform="translate(0,0)"/>
<path d="" fill="#1A170F" transform="translate(0,0)"/>
<path d="" fill="#20211A" transform="translate(0,0)"/>
<path d="" fill="#161710" transform="translate(0,0)"/>
<path d="" fill="#1A1710" transform="translate(0,0)"/>
<path d="" fill="#1A1912" transform="translate(0,0)"/>
<path d="" fill="#191710" transform="translate(0,0)"/>
<path d="" fill="#151812" transform="translate(0,0)"/>
<path d="" fill="#1B1715" transform="translate(0,0)"/>
<path d="" fill="#212218" transform="translate(0,0)"/>
<path d="" fill="#1F2219" transform="translate(0,0)"/>
<path d="" fill="#1F221A" transform="translate(0,0)"/>
<path d="" fill="#171610" transform="translate(0,0)"/>
<path d="" fill="#191A12" transform="translate(0,0)"/>
<path d="" fill="#221F1B" transform="translate(0,0)"/>
<path d="" fill="#22211B" transform="translate(0,0)"/>
<path d="" fill="#23241E" transform="translate(0,0)"/>
<path d="" fill="#22211B" transform="translate(0,0)"/>
<path d="" fill="#2C2321" transform="translate(0,0)"/>
<path d="" fill="#2E221F" transform="translate(0,0)"/>
<path d="" fill="#2D2121" transform="translate(0,0)"/>
<path d="" fill="#21201D" transform="translate(0,0)"/>
<path d="" fill="#25231A" transform="translate(0,0)"/>
<path d="" fill="#222019" transform="translate(0,0)"/>
<path d="" fill="#2F2322" transform="translate(0,0)"/>
<path d="" fill="#23211B" transform="translate(0,0)"/>
<path d="" fill="#201E19" transform="translate(0,0)"/>
<path d="" fill="#2F2220" transform="translate(0,0)"/>
<path d="" fill="#25201A" transform="translate(0,0)"/>
<path d="" fill="#2E231F" transform="translate(0,0)"/>
<path d="" fill="#251E1B" transform="translate(0,0)"/>
<path d="" fill="#221B1B" transform="translate(0,0)"/>
<path d="" fill="#241C18" transform="translate(0,0)"/>
<path d="" fill="#261E1A" transform="translate(0,0)"/>
<path d="" fill="#251D18" transform="translate(0,0)"/>
<path d="" fill="#261D1A" transform="translate(0,0)"/>
<path d="" fill="#2C211D" transform="translate(0,0)"/>
<path d="" fill="#241B18" transform="translate(0,0)"/>
<path d="" fill="#221B16" transform="translate(0,0)"/>
<path d="" fill="#2B1E1A" transform="translate(0,0)"/>
<path d="" fill="#27211E" transform="translate(0,0)"/>
<path d="" fill="#271C1C" transform="translate(0,0)"/>
<path d="" fill="#201B15" transform="translate(0,0)"/>
<path d="" fill="#201815" transform="translate(0,0)"/>
<path d="" fill="#211413" transform="translate(0,0)"/>
<path d="" fill="#271C19" transform="translate(0,0)"/>
<path d="" fill="#201612" transform="translate(0,0)"/>
<path d="" fill="#241A17" transform="translate(0,0)"/>
<path d="" fill="#1E1611" transform="translate(0,0)"/>
<path d="" fill="#211816" transform="translate(0,0)"/>
<path d="" fill="#221415" transform="translate(0,0)"/>
<path d="" fill="#201713" transform="translate(0,0)"/>
<path d="" fill="#201612" transform="translate(0,0)"/>
<path d="" fill="#1B1611" transform="translate(0,0)"/>
<path d="" fill="#231712" transform="translate(0,0)"/>
<path d="" fill="#231814" transform="translate(0,0)"/>
<path d="" fill="#241714" transform="translate(0,0)"/>
<path d="" fill="#1E1714" transform="translate(0,0)"/>
<path d="" fill="#241A18" transform="translate(0,0)"/>
<path d="" fill="#1D1813" transform="translate(0,0)"/>
<path d="" fill="#221A17" transform="translate(0,0)"/>
<path d="" fill="#211818" transform="translate(0,0)"/>
<path d="" fill="#241A18" transform="translate(0,0)"/>
<path d="" fill="#211B16" transform="translate(0,0)"/>
<path d="" fill="#221A18" transform="translate(0,0)"/>
<path d="" fill="#281D1D" transform="translate(0,0)"/>
<path d="" fill="#231B15" transform="translate(0,0)"/>
<path d="" fill="#241C18" transform="translate(0,0)"/>
<path d="" fill="#2B211D" transform="translate(0,0)"/>
<path d="" fill="#24201B" transform="translate(0,0)"/>
<path d="" fill="#251E1B" transform="translate(0,0)"/>
<path d="" fill="#2B201C" transform="translate(0,0)"/>
<path d="" fill="#28211B" transform="translate(0,0)"/>
<path d="" fill="#25201B" transform="translate(0,0)"/>
<path d="" fill="#241D19" transform="translate(0,0)"/>
<path d="" fill="#231C18" transform="translate(0,0)"/>
<path d="" fill="#261D17" transform="translate(0,0)"/>
<path d="" fill="#251D18" transform="translate(0,0)"/>
<path d="" fill="#211E1C" transform="translate(0,0)"/>
<path d="" fill="#281E1A" transform="translate(0,0)"/>
<path d="" fill="#26201B" transform="translate(0,0)"/>
<path d="" fill="#281C19" transform="translate(0,0)"/>
<path d="" fill="#2A201D" transform="translate(0,0)"/>
<path d="" fill="#271E1D" transform="translate(0,0)"/>
<path d="" fill="#27211B" transform="translate(0,0)"/>
<path d="" fill="#28201B" transform="translate(0,0)"/>
<path d="" fill="#27201E" transform="translate(0,0)"/>
<path d="" fill="#281E1F" transform="translate(0,0)"/>
<path d="" fill="#251D1D" transform="translate(0,0)"/>
<path d="" fill="#281F1E" transform="translate(0,0)"/>
<path d="" fill="#29201A" transform="translate(0,0)"/>
<path d="" fill="#878585" transform="translate(0,0)"/>
<path d="" fill="#6E6968" transform="translate(0,0)"/>
<path d="" fill="#322422" transform="translate(0,0)"/>
<path d="" fill="#322525" transform="translate(0,0)"/>
<path d="" fill="#302322" transform="translate(0,0)"/>
<path d="" fill="#2A201E" transform="translate(0,0)"/>
<path d="" fill="#2A2221" transform="translate(0,0)"/>
<path d="" fill="#2C231E" transform="translate(0,0)"/>
<path d="" fill="#2D201F" transform="translate(0,0)"/>
<path d="" fill="#2D2622" transform="translate(0,0)"/>
<path d="" fill="#312323" transform="translate(0,0)"/>
<path d="" fill="#2A2221" transform="translate(0,0)"/>
<path d="" fill="#2B2320" transform="translate(0,0)"/>
<path d="" fill="#271E1C" transform="translate(0,0)"/>
<path d="" fill="#2C221F" transform="translate(0,0)"/>
<path d="" fill="#302221" transform="translate(0,0)"/>
<path d="" fill="#2B2120" transform="translate(0,0)"/>
<path d="" fill="#2B231F" transform="translate(0,0)"/>
<path d="" fill="#2C241F" transform="translate(0,0)"/>
<path d="" fill="#2A221E" transform="translate(0,0)"/>
<path d="" fill="#2E2325" transform="translate(0,0)"/>
<path d="" fill="#2F2621" transform="translate(0,0)"/>
<path d="" fill="#2E2523" transform="translate(0,0)"/>
<path d="" fill="#2D2523" transform="translate(0,0)"/>
<path d="" fill="#302322" transform="translate(0,0)"/>
<path d="" fill="#2E2122" transform="translate(0,0)"/>
<path d="" fill="#302423" transform="translate(0,0)"/>
<path d="" fill="#2D2120" transform="translate(0,0)"/>
<path d="" fill="#2F2323" transform="translate(0,0)"/>
<path d="" fill="#251615" transform="translate(0,0)"/>
<path d="" fill="#2E201E" transform="translate(0,0)"/>
<path d="" fill="#291D1E" transform="translate(0,0)"/>
<path d="" fill="#2A201E" transform="translate(0,0)"/>
<path d="" fill="#251713" transform="translate(0,0)"/>
<path d="" fill="#2C2121" transform="translate(0,0)"/>
<path d="" fill="#241616" transform="translate(0,0)"/>
<path d="" fill="#2F2320" transform="translate(0,0)"/>
<path d="" fill="#241A15" transform="translate(0,0)"/>
<path d="" fill="#30211E" transform="translate(0,0)"/>
<path d="" fill="#231715" transform="translate(0,0)"/>
<path d="" fill="#2C2020" transform="translate(0,0)"/>
<path d="" fill="#2D2220" transform="translate(0,0)"/>
<path d="" fill="#281D1A" transform="translate(0,0)"/>
<path d="" fill="#281717" transform="translate(0,0)"/>
<path d="" fill="#2F201D" transform="translate(0,0)"/>
<path d="" fill="#2D201D" transform="translate(0,0)"/>
<path d="" fill="#696663" transform="translate(0,0)"/>
<path d="" fill="#241816" transform="translate(0,0)"/>
<path d="" fill="#2F2420" transform="translate(0,0)"/>
<path d="" fill="#291B18" transform="translate(0,0)"/>
<path d="" fill="#2C1F1C" transform="translate(0,0)"/>
<path d="" fill="#2A201F" transform="translate(0,0)"/>
<path d="" fill="#302320" transform="translate(0,0)"/>
<path d="" fill="#2C1C1A" transform="translate(0,0)"/>
<path d="" fill="#291C1A" transform="translate(0,0)"/>
<path d="" fill="#2A1A17" transform="translate(0,0)"/>
<path d="" fill="#2C1E1A" transform="translate(0,0)"/>
<path d="" fill="#251717" transform="translate(0,0)"/>
<path d="" fill="#2F201D" transform="translate(0,0)"/>
<path d="" fill="#281E1B" transform="translate(0,0)"/>
<path d="" fill="#2E1F1E" transform="translate(0,0)"/>
<path d="" fill="#2F2321" transform="translate(0,0)"/>
<path d="" fill="#2C1F1E" transform="translate(0,0)"/>
<path d="" fill="#2B1E1D" transform="translate(0,0)"/>
<path d="" fill="#281C19" transform="translate(0,0)"/>
<path d="" fill="#2E1D1F" transform="translate(0,0)"/>
<path d="" fill="#2F1F1F" transform="translate(0,0)"/>
<path d="" fill="#302320" transform="translate(0,0)"/>
<path d="" fill="#271918" transform="translate(0,0)"/>
<path d="" fill="#271A18" transform="translate(0,0)"/>
<path d="" fill="#332522" transform="translate(0,0)"/>
<path d="" fill="#291A1A" transform="translate(0,0)"/>
<path d="" fill="#281C1B" transform="translate(0,0)"/>
<path d="" fill="#261C1A" transform="translate(0,0)"/>
<path d="" fill="#2A1D1A" transform="translate(0,0)"/>
<path d="" fill="#281E1B" transform="translate(0,0)"/>
<path d="" fill="#281B19" transform="translate(0,0)"/>
<path d="" fill="#2F201C" transform="translate(0,0)"/>
<path d="" fill="#2B1F1F" transform="translate(0,0)"/>
<path d="" fill="#2E201D" transform="translate(0,0)"/>
<path d="" fill="#2C201B" transform="translate(0,0)"/>
<path d="" fill="#302220" transform="translate(0,0)"/>
<path d="" fill="#2A1E1D" transform="translate(0,0)"/>
<path d="" fill="#2F2120" transform="translate(0,0)"/>
<path d="" fill="#2E201E" transform="translate(0,0)"/>
<path d="" fill="#2E2221" transform="translate(0,0)"/>
<path d="" fill="#2F1E1C" transform="translate(0,0)"/>
<path d="" fill="#2D201F" transform="translate(0,0)"/>
<path d="" fill="#2F221E" transform="translate(0,0)"/>
<path d="" fill="#322424" transform="translate(0,0)"/>
<path d="" fill="#2F2220" transform="translate(0,0)"/>
<path d="" fill="#302224" transform="translate(0,0)"/>
<path d="" fill="#312623" transform="translate(0,0)"/>
<path d="" fill="#2F2221" transform="translate(0,0)"/>
<path d="" fill="#645B5B" transform="translate(0,0)"/>
<path d="" fill="#2F2221" transform="translate(0,0)"/>
<path d="" fill="#2D2120" transform="translate(0,0)"/>
<path d="" fill="#322622" transform="translate(0,0)"/>
<path d="" fill="#332321" transform="translate(0,0)"/>
<path d="" fill="#322624" transform="translate(0,0)"/>
<path d="" fill="#332623" transform="translate(0,0)"/>
<path d="" fill="#332524" transform="translate(0,0)"/>
<path d="" fill="#302324" transform="translate(0,0)"/>
<path d="" fill="#362925" transform="translate(0,0)"/>
<path d="" fill="#342624" transform="translate(0,0)"/>
<path d="" fill="#302320" transform="translate(0,0)"/>
<path d="" fill="#352724" transform="translate(0,0)"/>
<path d="" fill="#332724" transform="translate(0,0)"/>
<path d="" fill="#372927" transform="translate(0,0)"/>
<path d="" fill="#342623" transform="translate(0,0)"/>
<path d="" fill="#352726" transform="translate(0,0)"/>
<path d="" fill="#372B26" transform="translate(0,0)"/>
<path d="" fill="#3A2A2A" transform="translate(0,0)"/>
<path d="" fill="#372928" transform="translate(0,0)"/>
<path d="" fill="#372929" transform="translate(0,0)"/>
<path d="" fill="#36292B" transform="translate(0,0)"/>
<path d="" fill="#8A8989" transform="translate(0,0)"/>
</svg>
